<svg xmlns="http://www.w3.org/2000/svg" viewBox="0 0 512 512">
  <rect width="512" height="512" rx="96" fill="#a73400"/>
  <g fill="#fcf9f8">
    <path d="M256 96c-44 0-80 36-80 80v8h-16c-22 0-40 18-40 40v32c0 22 18 40 40 40h16v40c0 18 14 32 32 32h96c18 0 32-14 32-32v-40h16c22 0 40-18 40-40v-32c0-22-18-40-40-40h-16v-8c0-44-36-80-80-80zm0 40c22 0 40 18 40 40v8h-80v-8c0-22 18-40 40-40z"/>
    <circle cx="216" cy="288" r="10"/>
    <circle cx="256" cy="288" r="10"/>
    <circle cx="296" cy="288" r="10"/>
  </g>
</svg>
